<?xml version="1.0" encoding="UTF-8" standalone="no"?>
<!-- Svg Vector Icons : http://www.onlinewebfonts.com/icon -->

<svg
   xmlns:dc="http://purl.org/dc/elements/1.1/"
   xmlns:cc="http://creativecommons.org/ns#"
   xmlns:rdf="http://www.w3.org/1999/02/22-rdf-syntax-ns#"
   xmlns:svg="http://www.w3.org/2000/svg"
   xmlns="http://www.w3.org/2000/svg"
   xmlns:sodipodi="http://sodipodi.sourceforge.net/DTD/sodipodi-0.dtd"
   xmlns:inkscape="http://www.inkscape.org/namespaces/inkscape"
   version="1.1"
   x="0px"
   y="0px"
   viewBox="0 0 128 128"
   enable-background="new 0 0 1000 1000"
   xml:space="preserve"
   id="svg14"
   sodipodi:docname="logo.svg"
   width="128"
   height="128"
   inkscape:version="0.92.4 (5da689c313, 2019-01-14)"><defs
   id="defs18" /><sodipodi:namedview
   pagecolor="#ffffff"
   bordercolor="#666666"
   borderopacity="1"
   objecttolerance="10"
   gridtolerance="10"
   guidetolerance="10"
   inkscape:pageopacity="0"
   inkscape:pageshadow="2"
   inkscape:window-width="1600"
   inkscape:window-height="836"
   id="namedview16"
   showgrid="false"
   inkscape:zoom="1.888"
   inkscape:cx="122.26483"
   inkscape:cy="69.739297"
   inkscape:window-x="0"
   inkscape:window-y="27"
   inkscape:window-maximized="1"
   inkscape:current-layer="g12" />
<metadata
   id="metadata2"> Svg Vector Icons : http://www.onlinewebfonts.com/icon <rdf:RDF><cc:Work
     rdf:about=""><dc:format>image/svg+xml</dc:format><dc:type
       rdf:resource="http://purl.org/dc/dcmitype/StillImage" /><dc:title /></cc:Work></rdf:RDF></metadata>
<g
   id="g12"
   transform="matrix(0.12214654,0,0,0.12214654,4.2524327,3.437336)"><g
     transform="matrix(0.1,0,0,-0.1,0,512)"
     id="g10"
     style="fill:#808080;fill-opacity:1"><path
       d="M 3998.1,4998.1 C 3149.4,4877.4 2383,4398.4 1913.7,3697.2 1565,3172.3 1406,2647.3 1406,2009.4 c 0,-367.8 38.3,-616.9 143.7,-933 297,-888.9 1025,-1618.9 1904.4,-1908.2 95.8,-30.6 195.4,-61.3 226.1,-69 l 51.7,-11.5 v 235.7 237.6 l -128.4,42.2 c -205,65.1 -536.4,239.5 -716.5,373.6 -513.4,387 -864.1,946.4 -988.6,1578.6 -44.1,226.1 -44.1,701.2 0,927.3 99.6,502 321.9,929.2 674.4,1297 364,379.3 789.3,616.9 1312.4,731.9 262.5,59.4 743.3,63.2 996.2,11.5 1040.3,-220.3 1802.8,-977.1 2025.1,-2011.6 47.9,-224.2 47.9,-764.4 -1.9,-990.5 -44.1,-206.9 -130.3,-448.3 -224.1,-634.1 l -72.8,-145.6 159,-157.1 c 88.1,-84.3 170.5,-155.2 182,-155.2 28.7,0 258.6,475.1 318,659.1 109.2,341 132.2,507.7 132.2,931.1 0,331.4 -7.7,423.4 -42.2,586.3 -262.5,1212.7 -1174.4,2118.9 -2379.5,2364.2 -258.7,53.3 -718.5,66.7 -979.1,28.4 z"
       id="path4"
       inkscape:connector-curvature="0"
       style="fill:#808080;fill-opacity:1" /><path
       d="M 4258.7,3626.3 C 3624.5,3574.6 3080.4,3143.5 2865.9,2517 c -59.4,-174.3 -61.3,-195.4 -63.2,-479 0,-344.9 21.1,-450.2 151.4,-718.5 101.5,-214.6 260.6,-413.8 436.8,-555.6 116.9,-92 295,-201.2 331.4,-201.2 5.7,0 9.6,115 9.6,254.8 v 256.7 L 3638,1153 c -122.6,103.5 -272.1,329.5 -329.5,496.2 -38.3,109.2 -46,168.6 -46,369.8 0,289.3 38.3,423.4 185.8,643.7 155.2,231.8 400.4,406.2 666.7,477.1 137.9,36.4 440.6,36.4 582.4,0 254.8,-67.1 526.9,-260.6 672.5,-479 145.6,-218.4 222.2,-542.2 183.9,-766.3 l -19.2,-115 183.9,-176.3 c 143.7,-137.9 189.7,-172.4 201.2,-149.4 9.6,15.3 34.5,93.9 55.6,176.3 57.5,210.7 57.5,569 0,781.7 -208.8,783.5 -906.2,1277.8 -1716.6,1214.5 z"
       id="path6"
       inkscape:connector-curvature="0"
       style="fill:#808080;fill-opacity:1" /><path
       d="m 4392.8,1925.1 c -92,-42.1 -132.2,-84.3 -172.4,-180.1 -24.9,-61.3 -28.7,-379.3 -28.7,-2724.3 0,-2567.3 1.9,-2657.3 36.4,-2726.3 44.1,-88.1 88.1,-128.4 180.1,-166.7 82.4,-34.5 130.3,-36.4 233.7,-7.7 65.1,17.3 147.5,92 521.1,473.2 243.3,249 446.4,450.2 450.2,444.5 3.8,-5.8 157.1,-362.1 339.1,-795.1 183.9,-433 356.4,-816.2 383.2,-852.6 28.7,-36.4 99.6,-92 157.1,-120.7 162.8,-84.3 239.5,-70.9 687.8,120.7 323.8,138 385.1,172.4 461.7,249.1 99.6,101.5 145.6,233.7 122.6,358.3 -7.7,40.2 -164.8,431.1 -352.5,867.9 l -339.1,795.1 624.6,9.6 c 616.9,11.5 622.7,11.5 708.9,57.5 233.7,130.3 251,377.4 40.2,595.8 -59.4,59.4 -911.9,887 -1896.7,1837.3 -1230,1187.8 -1814.3,1739.6 -1868,1764.5 -99.6,45.9 -191.6,45.9 -289.3,0 z M 6318.2,-471.7 c 689.7,-666.7 1256.8,-1218.5 1260.6,-1228.1 3.9,-7.7 -212.6,-17.2 -479,-21.1 -448.3,-5.7 -490.4,-9.6 -561.3,-46 -113,-59.4 -191.6,-195.4 -191.6,-331.5 0,-95.8 38.3,-195.4 377.4,-988.6 l 377.5,-881.3 -128.4,-59.4 c -70.9,-32.6 -145.6,-65.2 -166.7,-70.9 -34.5,-11.5 -74.7,70.9 -410,862.1 -377.4,889 -421.5,969.4 -546,1034.6 -80.5,42.2 -252.9,40.2 -335.3,-3.8 -36.4,-17.2 -210.7,-182 -388.9,-362.1 l -319.9,-327.6 -1.9,1944.6 V 992 L 4935,865.6 c 70.9,-69 693.5,-670.6 1383.2,-1337.3 z"
       id="path8"
       inkscape:connector-curvature="0"
       style="fill:#808080;fill-opacity:1" /></g></g>
</svg>