<?xml version="1.0" encoding="UTF-8" standalone="no"?>
<svg
   xmlns:dc="http://purl.org/dc/elements/1.1/"
   xmlns:cc="http://creativecommons.org/ns#"
   xmlns:rdf="http://www.w3.org/1999/02/22-rdf-syntax-ns#"
   xmlns:svg="http://www.w3.org/2000/svg"
   xmlns="http://www.w3.org/2000/svg"
   xmlns:sodipodi="http://sodipodi.sourceforge.net/DTD/sodipodi-0.dtd"
   xmlns:inkscape="http://www.inkscape.org/namespaces/inkscape"
   width="16"
   height="16"
   version="1.1"
   id="svg8"
   sodipodi:docname="view-list-bullet-symbolicb.svg"
   inkscape:version="0.92.5 (2060ec1f9f, 2020-04-08)">
  <metadata
     id="metadata14">
    <rdf:RDF>
      <cc:Work
         rdf:about="">
        <dc:format>image/svg+xml</dc:format>
        <dc:type
           rdf:resource="http://purl.org/dc/dcmitype/StillImage" />
        <dc:title></dc:title>
      </cc:Work>
    </rdf:RDF>
  </metadata>
  <defs
     id="defs12" />
  <sodipodi:namedview
     pagecolor="#ffffff"
     bordercolor="#666666"
     borderopacity="1"
     objecttolerance="10"
     gridtolerance="10"
     guidetolerance="10"
     inkscape:pageopacity="0"
     inkscape:pageshadow="2"
     inkscape:window-width="1920"
     inkscape:window-height="995"
     id="namedview10"
     showgrid="false"
     inkscape:zoom="14.75"
     inkscape:cx="-3.2542373"
     inkscape:cy="8"
     inkscape:window-x="0"
     inkscape:window-y="0"
     inkscape:window-maximized="1"
     inkscape:current-layer="svg8" />
  <g
     fill="#2e3436"
     id="g6"
     style="fill:#ffffff;fill-opacity:1">
    <path
       d="M2.384 3h1.231A.38.38 0 014 3.379V4.62a.38.38 0 01-.385.38h-1.23A.38.38 0 012 4.621V3.38A.38.38 0 012.384 3zm0 4.016h1.231A.38.38 0 014 7.394v1.243a.38.38 0 01-.385.379h-1.23A.38.38 0 012 8.636V7.395a.38.38 0 01.384-.378zm0 3.984h1.231a.38.38 0 01.385.379v1.242a.38.38 0 01-.385.379h-1.23A.38.38 0 012 12.621V11.38a.38.38 0 01.384-.38z"
       overflow="visible"
       id="path2"
       style="fill:#ffffff;fill-opacity:1" />
    <path
       d="M6.494 3h7c.277 0 .5.223.5.5v1c0 .277-.223.5-.5.5h-7a.499.499 0 01-.5-.5v-1c0-.277.223-.5.5-.5zm0 4h7c.277 0 .5.223.5.5v1c0 .277-.223.5-.5.5h-7a.499.499 0 01-.5-.5v-1c0-.277.223-.5.5-.5zm0 4h7c.277 0 .5.223.5.5v1c0 .277-.223.5-.5.5h-7a.499.499 0 01-.5-.5v-1c0-.277.223-.5.5-.5z"
       id="path4"
       style="fill:#ffffff;fill-opacity:1" />
  </g>
</svg>
