<?xml version="1.0" encoding="UTF-8" standalone="no"?>
<svg
   xmlns:dc="http://purl.org/dc/elements/1.1/"
   xmlns:cc="http://creativecommons.org/ns#"
   xmlns:rdf="http://www.w3.org/1999/02/22-rdf-syntax-ns#"
   xmlns:svg="http://www.w3.org/2000/svg"
   xmlns="http://www.w3.org/2000/svg"
   xmlns:sodipodi="http://sodipodi.sourceforge.net/DTD/sodipodi-0.dtd"
   xmlns:inkscape="http://www.inkscape.org/namespaces/inkscape"
   viewBox="0 0 16 16"
   style="enable-background:new"
   version="1.1"
   id="svg4"
   sodipodi:docname="notification-new-symbolic.svg"
   inkscape:version="0.92.4 (5da689c313, 2019-01-14)">
  <metadata
     id="metadata10">
    <rdf:RDF>
      <cc:Work
         rdf:about="">
        <dc:format>image/svg+xml</dc:format>
        <dc:type
           rdf:resource="http://purl.org/dc/dcmitype/StillImage" />
      </cc:Work>
    </rdf:RDF>
  </metadata>
  <defs
     id="defs8">
    <marker
       inkscape:stockid="Arrow1Lstart"
       orient="auto"
       refY="0"
       refX="0"
       id="marker4909"
       style="overflow:visible"
       inkscape:isstock="true">
      <path
         inkscape:connector-curvature="0"
         id="path4907"
         d="M 0,0 5,-5 -12.5,0 5,5 Z"
         style="fill:#bebebe;fill-opacity:0.74509804;fill-rule:evenodd;stroke:none;stroke-width:1.00000003pt;stroke-opacity:1"
         transform="matrix(0.8,0,0,0.8,10,0)" />
    </marker>
    <marker
       inkscape:stockid="Arrow1Lstart"
       orient="auto"
       refY="0"
       refX="0"
       id="marker4909-6"
       style="overflow:visible"
       inkscape:isstock="true">
      <path
         inkscape:connector-curvature="0"
         id="path4907-8"
         d="M 0,0 5,-5 -12.5,0 5,5 Z"
         style="fill:#808080;fill-opacity:1;fill-rule:evenodd;stroke:none;stroke-width:1.00000003pt;stroke-opacity:1"
         transform="matrix(0.8,0,0,0.8,10,0)" />
    </marker>
  </defs>
  <sodipodi:namedview
     pagecolor="#ffffff"
     bordercolor="#666666"
     borderopacity="1"
     objecttolerance="10"
     gridtolerance="10"
     guidetolerance="10"
     inkscape:pageopacity="0"
     inkscape:pageshadow="2"
     inkscape:window-width="1600"
     inkscape:window-height="836"
     id="namedview6"
     showgrid="false"
     inkscape:zoom="29.5"
     inkscape:cx="-2.7487993"
     inkscape:cy="8.9203894"
     inkscape:window-x="0"
     inkscape:window-y="27"
     inkscape:window-maximized="1"
     inkscape:current-layer="svg4" />
  <path
     d="m 8 1 c -3.377 0 -5 3 -5 6.6 l 0 2.4 -2.5 3 15 0 -2.5 -3 0 -2.4 c 0 -3.6 -1.623 -6.6 -5 -6.6 m -3.01 13 c 0.443 1.158 1.612 2 3 2 1.388 0 2.557 -0.842 3 -2 z"
     style="fill:#808080;opacity:1;fill-opacity:1"
     id="path2" />
  <path
     inkscape:connector-curvature="0"
     d="m 13.730151,5.8943392 1.988673,-0.099991 C 15.582109,3.5700824 14.486176,1.4873258 12.839719,0.23589711 13.031477,0.18795767 11.328088,1.4443185 11.328088,1.4443185 c 1.373028,0.9728368 2.263878,2.5728777 2.402063,4.4500207 z"
     id="path4"
     style="fill:#808080;fill-opacity:1;stroke-width:0.01490026;stroke-miterlimit:4;stroke-dasharray:none;marker-mid:url(#marker4909);enable-background:new"
     sodipodi:nodetypes="ccccc" />
  <path
     inkscape:connector-curvature="0"
     d="M 2.3450144,5.862012 0.35634138,5.762021 C 0.49305638,3.5377553 1.5889894,1.4549987 3.2354464,0.20357008 3.0436884,0.15563108 4.7470774,1.4119914 4.7470774,1.4119914 3.3740494,2.3848282 2.4831994,3.9848691 2.3450144,5.862012 Z"
     id="path4-5"
     style="fill:#808080;fill-opacity:1;stroke-width:0.01490026;stroke-miterlimit:4;stroke-dasharray:none;marker-mid:url(#marker4909-6);enable-background:new"
     sodipodi:nodetypes="ccccc" />
</svg>
