<?xml version="1.0" encoding="UTF-8" standalone="no"?>
<svg
   xmlns:dc="http://purl.org/dc/elements/1.1/"
   xmlns:cc="http://creativecommons.org/ns#"
   xmlns:rdf="http://www.w3.org/1999/02/22-rdf-syntax-ns#"
   xmlns:svg="http://www.w3.org/2000/svg"
   xmlns="http://www.w3.org/2000/svg"
   xmlns:sodipodi="http://sodipodi.sourceforge.net/DTD/sodipodi-0.dtd"
   xmlns:inkscape="http://www.inkscape.org/namespaces/inkscape"
   width="16"
   height="16"
   version="1.1"
   id="svg8"
   sodipodi:docname="new-view-list-bullet-symbolicb.svg"
   inkscape:version="0.92.5 (2060ec1f9f, 2020-04-08)">
  <metadata
     id="metadata14">
    <rdf:RDF>
      <cc:Work
         rdf:about="">
        <dc:format>image/svg+xml</dc:format>
        <dc:type
           rdf:resource="http://purl.org/dc/dcmitype/StillImage" />
        <dc:title></dc:title>
      </cc:Work>
    </rdf:RDF>
  </metadata>
  <defs
     id="defs12" />
  <sodipodi:namedview
     pagecolor="#ffffff"
     bordercolor="#666666"
     borderopacity="1"
     objecttolerance="10"
     gridtolerance="10"
     guidetolerance="10"
     inkscape:pageopacity="0"
     inkscape:pageshadow="2"
     inkscape:window-width="2560"
     inkscape:window-height="1403"
     id="namedview10"
     showgrid="false"
     inkscape:zoom="14.75"
     inkscape:cx="-3.2542373"
     inkscape:cy="8"
     inkscape:window-x="1920"
     inkscape:window-y="0"
     inkscape:window-maximized="1"
     inkscape:current-layer="g823" />
  <g
     id="g823">
    <path
       d="M 2.384,3 H 3.615 A 0.38,0.38 0 0 1 4,3.379 V 4.62 A 0.38,0.38 0 0 1 3.615,5 H 2.385 A 0.38,0.38 0 0 1 2,4.621 V 3.38 A 0.38,0.38 0 0 1 2.384,3 Z m 0,4.016 H 3.615 A 0.38,0.38 0 0 1 4,7.394 V 8.637 A 0.38,0.38 0 0 1 3.615,9.016 H 2.385 A 0.38,0.38 0 0 1 2,8.636 V 7.395 A 0.38,0.38 0 0 1 2.384,7.017 Z m 0,3.984 H 3.615 A 0.38,0.38 0 0 1 4,11.379 v 1.242 A 0.38,0.38 0 0 1 3.615,13 H 2.385 A 0.38,0.38 0 0 1 2,12.621 V 11.38 A 0.38,0.38 0 0 1 2.384,11 Z"
       overflow="visible"
       id="path2"
       inkscape:connector-curvature="0"
       style="overflow:visible;fill:#ffffff;fill-opacity:1" />
    <path
       sodipodi:nodetypes="sssssccsssssssccsssssssccss"
       d="m 6.494,3 h 7 c 0.277,0 0.5,0.223 0.5,0.5 v 1 c 0,0.277 -0.223,0.5 -0.5,0.5 h -7 C 6.2176283,5.0005544 5.9934456,4.7763717 5.994,4.5 v -1 C 5.994,3.223 6.217,3 6.494,3 Z m 0,4 h 7 c 0.277,0 0.5,0.223 0.5,0.5 v 1 c 0,0.277 -0.223,0.5 -0.5,0.5 h -7 C 6.2176283,9.0005544 5.9934456,8.7763717 5.994,8.5 v -1 C 5.994,7.223 6.217,7 6.494,7 Z m 0,4 3.949153,-0.0678 c 0.276959,-0.0048 0.02315,0.998221 0.29661,1.042373 L 13.994,12.5 c 0.273459,0.04415 -0.223,0.5 -0.5,0.5 h -7 c -0.2763717,5.54e-4 -0.5005544,-0.223628 -0.5,-0.5 v -1 c 0,-0.277 0.2230408,-0.495245 0.5,-0.5 z"
       id="path4"
       inkscape:connector-curvature="0"
       style="fill:#ffffff;fill-opacity:1" />
  </g>
  <path
     inkscape:connector-curvature="0"
     style="color:#bebebe;overflow:visible;fill:#f57900;stroke:none;stroke-opacity:1"
     class="warning"
     d="m 8.8760001,7.966109 a 0.863,0.863 0 0 0 -0.876,0.8749999 v 6.2500001 c 0,0.492 0.383,0.875 0.875,0.875 H 15.125 A 0.863,0.863 0 0 0 16,15.091109 V 8.8411089 A 0.863,0.863 0 0 0 15.126,7.966109 Z M 11,8.9661089 h 2 v 2.5000001 c 0,0 0,0.5 -0.5,0.5 h -1 c -0.5,0 -0.5,-0.5 -0.5,-0.5 z m 0.5,4.0000001 h 1 c 0.277,0 0.5,0.223 0.5,0.5 v 1 c 0,0.277 -0.223,0.5 -0.5,0.5 h -1 a 0.499,0.499 0 0 1 -0.5,-0.5 v -1 c 0,-0.277 0.223,-0.5 0.5,-0.5 z"
     overflow="visible"
     id="path6" />
</svg>
