<?xml version="1.0" encoding="UTF-8" standalone="no"?>
<svg
   xmlns:dc="http://purl.org/dc/elements/1.1/"
   xmlns:cc="http://creativecommons.org/ns#"
   xmlns:rdf="http://www.w3.org/1999/02/22-rdf-syntax-ns#"
   xmlns:svg="http://www.w3.org/2000/svg"
   xmlns="http://www.w3.org/2000/svg"
   xmlns:sodipodi="http://sodipodi.sourceforge.net/DTD/sodipodi-0.dtd"
   xmlns:inkscape="http://www.inkscape.org/namespaces/inkscape"
   height="16"
   width="16"
   version="1.1"
   id="svg4"
   sodipodi:docname="media-playlist-consecutive-symbolic.svg"
   inkscape:version="0.92.4 (5da689c313, 2019-01-14)">
  <metadata
     id="metadata10">
    <rdf:RDF>
      <cc:Work
         rdf:about="">
        <dc:format>image/svg+xml</dc:format>
        <dc:type
           rdf:resource="http://purl.org/dc/dcmitype/StillImage" />
      </cc:Work>
    </rdf:RDF>
  </metadata>
  <defs
     id="defs8" />
  <sodipodi:namedview
     pagecolor="#ffffff"
     bordercolor="#666666"
     borderopacity="1"
     objecttolerance="10"
     gridtolerance="10"
     guidetolerance="10"
     inkscape:pageopacity="0"
     inkscape:pageshadow="2"
     inkscape:window-width="681"
     inkscape:window-height="480"
     id="namedview6"
     showgrid="false"
     inkscape:zoom="14.75"
     inkscape:cx="8"
     inkscape:cy="8"
     inkscape:window-x="717"
     inkscape:window-y="184"
     inkscape:window-maximized="0"
     inkscape:current-layer="svg4">
    <sodipodi:guide
       position="-9.6271186,8.2711864"
       orientation="1,0"
       id="guide12"
       inkscape:locked="false" />
  </sodipodi:namedview>
  <path
     d="M 11,1 V 3 H 0 V 4 H 11.002 V 6 C 11.762,5.652 12.536,5.264 13.324,4.834 14.105,4.404 14.857,3.958 15.582,3.5 14.857,3.05 14.105,2.61 13.324,2.18 12.561408,1.7633246 11.786387,1.3698113 11,1 Z"
     style="color:#000000;overflow:visible;fill:#808080;marker:none"
     overflow="visible"
     id="path2"
     inkscape:connector-curvature="0"
     sodipodi:nodetypes="cccccccccc" />
  <path
     inkscape:connector-curvature="0"
     d="m 5.19778,10 v 2 h 11 v 1 h -11.002 v 1.999999 C 4.43578,14.652 3.66178,14.264 2.87378,13.834 c -0.781,-0.43 -1.533,-0.876 -2.258,-1.334 0.725,-0.45 1.477,-0.89 2.258,-1.32 0.762592,-0.416676 1.537613,-0.810189 2.324,-1.18 z"
     style="color:#000000;overflow:visible;fill:#808080;marker:none"
     overflow="visible"
     id="path2-3"
     sodipodi:nodetypes="cccccccccc" />
</svg>
